<svg width="24" height="24" viewBox="0 0 24 24" fill="none" xmlns="http://www.w3.org/2000/svg">
<rect width="24" height="24" fill="#1E1E1E"/>
<g clip-path="url(#clip0_0_1)">
<rect width="1440" height="2681" transform="translate(-612 -2165)" fill="#090F20"/>
<rect width="24" height="24" rx="12" fill="white"/>
<path d="M16.6711 15.4688L17.2031 12H13.875V9.75C13.875 8.80078 14.3391 7.875 15.8297 7.875H17.3438V4.92188C17.3438 4.92188 15.9703 4.6875 14.6578 4.6875C11.9156 4.6875 10.125 6.34922 10.125 9.35625V12H7.07812V15.4688H10.125V23.8547C10.7367 23.9508 11.3625 24 12 24C12.6375 24 13.2633 23.9508 13.875 23.8547V15.4688H16.6711Z" fill="#090F20"/>
</g>
<defs>
<clipPath id="clip0_0_1">
<rect width="1440" height="2681" fill="white" transform="translate(-612 -2165)"/>
</clipPath>
</defs>
</svg>
