<svg width="136" height="23" viewBox="0 0 136 23" fill="none" xmlns="http://www.w3.org/2000/svg">
<rect width="136" height="23" fill="#1E1E1E"/>
<g id="Explore Projects" clip-path="url(#clip0_0_1)">
<rect width="1440" height="2681" transform="translate(-652 -1902)" fill="#090F20"/>
<g id="Group 21337">
<g id="Group 21336">
<g id="Group 4">
<g id="Frame" clip-path="url(#clip1_0_1)">
<g id="Group">
<g id="Group_2">
<g id="Group_3">
<path id="Vector" d="M9.00062 22.2813C10.9182 17.0652 14.4012 12.5474 18.9017 9.30273C19.254 7.61881 19.6844 6.18131 20.1149 4.99023C15.2231 7.00273 11.0748 10.3706 8.13965 14.7652C8.29619 17.1063 8.57013 19.6117 9.00062 22.2813Z" fill="white"/>
<path id="Vector_2" d="M20.5459 2.93627C19.5675 2.77199 18.6674 2.6077 17.7673 2.40234C12.9928 3.7577 8.72713 6.59163 5.51807 10.4523C6.26163 10.5756 7.04433 10.7398 7.78789 10.8631C7.78789 11.8898 7.78789 12.9166 7.86616 13.9845C10.8013 9.67199 15.0278 6.3452 19.9197 4.41484C20.1154 3.88092 20.311 3.38806 20.5459 2.93627Z" fill="white"/>
<path id="Vector_3" d="M17.1019 2.03304C15.1843 1.66339 13.3059 1.21161 11.4665 0.71875C8.10092 1.82768 5.00926 3.71696 2.38723 6.30447C2.77858 6.55089 3.13079 6.83839 3.52214 7.08482C3.99176 6.59197 4.46138 6.18125 4.97013 5.77054C4.73532 6.38661 4.53964 7.00268 4.34397 7.65982C4.77445 7.98839 5.20494 8.27589 5.63542 8.56339C5.08753 8.68661 4.53964 8.80982 3.99176 8.89197C3.91349 9.22054 3.83522 9.54911 3.79608 9.87768C4.1483 9.95982 4.53964 10.042 4.93099 10.1241C8.10092 6.26339 12.3666 3.42946 17.1019 2.03304ZM2.26982 6.42768C1.48713 7.20804 0.704428 8.11161 0 9.01518C0.508753 9.13839 1.01751 9.26161 1.48713 9.38482C1.87847 8.89197 2.26982 8.44018 2.66117 7.98839C2.54377 7.45447 2.38723 6.92054 2.26982 6.42768ZM3.01338 9.13839C3.09165 9.34375 3.13079 9.54911 3.20906 9.79554C2.70031 9.67232 2.19155 9.54911 1.6828 9.46697C2.11328 9.34375 2.54377 9.22054 3.01338 9.13839Z" fill="white"/>
</g>
<g id="Group_4">
<path id="Vector_4" d="M25.3595 16.7761H22.9331L26.2987 6.17969H29.1947L32.5603 16.7761H30.1339L29.5078 14.5993H25.9856L25.3595 16.7761ZM26.6509 12.2993L26.5335 12.669H28.9599L28.8425 12.2993C28.5685 11.2725 28.3337 10.41 28.138 9.67076C27.9424 8.93147 27.825 8.47969 27.7858 8.27433L27.7076 7.94576C27.6684 8.52076 27.3162 9.99933 26.6509 12.2993Z" fill="white"/>
<path id="Vector_5" d="M36.0043 16.7761H33.6953L34.5563 6.17969H37.1L38.5089 9.99933C38.7437 10.6565 38.9394 11.2315 39.1351 11.7654C39.2916 12.2993 39.409 12.669 39.4481 12.9154L39.5264 13.244C39.6829 12.5458 40.0352 11.4779 40.5831 10.0404L41.9919 6.22076H44.5357L45.5923 16.8172H43.2834L42.892 12.71L42.6963 9.62969C42.4224 10.41 42.0702 11.4368 41.6006 12.71L40.1917 16.694H38.822L37.4131 12.71C37.1783 12.0529 36.9826 11.4779 36.8261 10.944C36.6696 10.4511 36.5522 10.0815 36.513 9.87611L36.4348 9.58862C36.4348 10.3279 36.3956 11.3547 36.3174 12.669L36.0043 16.7761Z" fill="white"/>
<path id="Vector_6" d="M54.7498 16.3245C54.1236 16.7352 53.2626 16.9406 52.1277 16.9406C50.6406 16.9406 49.4274 16.4477 48.4099 15.4209C47.4315 14.4352 46.9228 13.1209 46.9228 11.5191C46.9228 9.91735 47.3924 8.60307 48.3708 7.57628C49.3491 6.5495 50.6015 6.05664 52.1277 6.05664C53.2626 6.05664 54.1236 6.262 54.7498 6.67271V9.01378C54.0062 8.52093 53.1844 8.2745 52.2451 8.2745C51.4233 8.2745 50.758 8.562 50.2101 9.17807C49.6622 9.75307 49.3883 10.5745 49.3883 11.5602C49.3883 12.5459 49.6622 13.3263 50.2101 13.8602C50.758 14.4352 51.4624 14.7227 52.3234 14.7227C53.2626 14.7227 54.0845 14.4763 54.7498 13.9834V16.3245Z" fill="white"/>
<path id="Vector_7" d="M64.8074 16.7761H62.4984V12.5458H58.7806V16.7761H56.4717V6.17969H58.7806V10.4922H62.4984V6.17969H64.8074V16.7761Z" fill="white"/>
<path id="Vector_8" d="M68.5254 16.7761H66.1382L69.5038 6.17969H72.3998L75.7654 16.7761H73.2999L72.6737 14.5993H69.1516L68.5254 16.7761ZM69.8169 12.2993L69.6995 12.669H72.1258L72.0084 12.2993C71.7345 11.2725 71.4997 10.41 71.304 9.67076C71.1083 8.93147 70.9909 8.47969 70.9518 8.27433L70.8735 7.94576C70.8344 8.52076 70.4821 9.99933 69.8169 12.2993Z" fill="white"/>
<path id="Vector_9" d="M79.1698 16.7761H76.8608L77.7218 6.17969H80.2656L81.6744 9.99933C81.9092 10.6565 82.1049 11.2315 82.3006 11.7654C82.4571 12.2993 82.5745 12.669 82.6137 12.9154L82.6919 13.244C82.8485 12.5458 83.2007 11.4779 83.7486 10.0404L85.1574 6.22076H87.7012L88.7578 16.8172H86.4489L86.0575 12.71L85.8619 9.62969C85.5879 10.41 85.2357 11.4368 84.7661 12.71L83.3572 16.694H81.9875L80.5787 12.71C80.3438 12.0529 80.1482 11.4779 79.9916 10.944C79.8351 10.4511 79.7177 10.0815 79.6786 9.87611L79.6003 9.58862C79.6003 10.3279 79.5612 11.3547 79.4829 12.669L79.1698 16.7761Z" fill="white"/>
</g>
</g>
</g>
</g>
<line id="Line 1" x1="94.9842" y1="2.18557e-08" x2="94.9842" y2="23" stroke="#89898A"/>
<g id="CRS.">
<path d="M105.22 17.1597C104.173 17.1597 103.273 16.9016 102.519 16.3854C101.765 15.8691 101.189 15.1791 100.792 14.3152C100.404 13.4407 100.21 12.4873 100.21 11.4548C100.21 10.4119 100.404 9.45842 100.792 8.59452C101.189 7.73063 101.765 7.04057 102.519 6.52434C103.273 6.00811 104.173 5.75 105.22 5.75C106.498 5.75 107.545 6.11873 108.361 6.8562C109.178 7.59367 109.712 8.56292 109.963 9.76394H107.859C107.712 9.15289 107.403 8.65247 106.932 8.26266C106.472 7.86232 105.911 7.66215 105.252 7.66215C104.341 7.66215 103.65 8.00981 103.179 8.70514C102.708 9.40047 102.472 10.317 102.472 11.4548C102.472 12.5927 102.708 13.5092 103.179 14.2046C103.65 14.8999 104.341 15.2475 105.252 15.2475C105.901 15.2475 106.445 15.0632 106.885 14.6944C107.325 14.3152 107.628 13.8464 107.796 13.288H109.9C109.649 14.4258 109.12 15.3582 108.314 16.0851C107.508 16.8015 106.477 17.1597 105.22 17.1597Z" fill="#1FC4DA"/>
<path d="M115.039 13.0193H113.595V17.0333H111.427V5.97124H115.495C116.374 5.97124 117.113 6.1398 117.709 6.47693C118.306 6.81406 118.746 7.25128 119.029 7.78857C119.311 8.32587 119.453 8.91058 119.453 9.5427C119.453 10.2696 119.264 10.9281 118.887 11.5181C118.51 12.0975 117.94 12.5136 117.175 12.7665L119.657 17.0333H117.38L115.039 13.0193ZM113.595 11.2336H115.165C115.772 11.2336 116.285 11.1072 116.704 10.8543C117.133 10.591 117.348 10.1537 117.348 9.5427C117.348 8.93165 117.139 8.50497 116.72 8.26266C116.301 8.00981 115.783 7.88339 115.165 7.88339H113.595V11.2336Z" fill="#1FC4DA"/>
<path d="M124.956 17.1755C124.076 17.1755 123.317 17.0017 122.678 16.654C122.05 16.2958 121.574 15.8375 121.249 15.2792C120.925 14.7208 120.762 14.1308 120.762 13.5092V13.4144H123.15V13.5092C123.15 13.7726 123.212 14.0413 123.338 14.3152C123.474 14.5786 123.678 14.7998 123.951 14.9789C124.233 15.158 124.579 15.2475 124.987 15.2475C125.5 15.2475 125.914 15.1159 126.228 14.8525C126.552 14.5891 126.715 14.2362 126.715 13.7937C126.715 13.4144 126.579 13.1142 126.306 12.8929C126.045 12.6611 125.72 12.5084 125.333 12.4346L123.998 12.1502C123.307 12.0132 122.642 11.7182 122.003 11.2652C121.364 10.8017 121.045 10.0484 121.045 9.0054C121.045 8.33114 121.207 7.7517 121.532 7.26708C121.857 6.77192 122.307 6.39792 122.883 6.14507C123.458 5.88169 124.113 5.75 124.846 5.75C125.683 5.75 126.401 5.9133 126.997 6.23989C127.605 6.56648 128.06 6.98789 128.364 7.50412C128.678 8.02035 128.835 8.56818 128.835 9.14762V9.21084H126.448V9.16343C126.448 8.78416 126.312 8.43123 126.039 8.10463C125.778 7.7675 125.354 7.59894 124.767 7.59894C124.286 7.59894 123.909 7.73063 123.636 7.99401C123.364 8.24686 123.228 8.57345 123.228 8.97379C123.228 9.35306 123.364 9.65332 123.636 9.87456C123.919 10.0958 124.265 10.2486 124.673 10.3328L125.992 10.6173C126.798 10.7964 127.5 11.1283 128.097 11.6129C128.693 12.0975 128.992 12.8086 128.992 13.7463C128.992 14.4205 128.819 15.021 128.474 15.5478C128.128 16.064 127.646 16.4644 127.029 16.7488C126.421 17.0333 125.73 17.1755 124.956 17.1755Z" fill="#1FC4DA"/>
<path d="M133.873 17.25C133.281 17.25 132.778 17.0513 132.365 16.654C131.97 16.2386 131.773 15.7329 131.773 15.1369C131.773 14.5409 131.97 14.0352 132.365 13.6198C132.778 13.2045 133.281 12.9968 133.873 12.9968C134.483 12.9968 134.986 13.2045 135.381 13.6198C135.794 14.0352 136 14.5409 136 15.1369C136 15.7149 135.794 16.2115 135.381 16.6269C134.986 17.0423 134.483 17.25 133.873 17.25Z" fill="#FF6D03"/>
</g>
</g>
</g>
</g>
</g>
<defs>
<clipPath id="clip0_0_1">
<rect width="1440" height="2681" fill="white" transform="translate(-652 -1902)"/>
</clipPath>
<clipPath id="clip1_0_1">
<rect width="88.7579" height="21.5625" fill="white" transform="translate(0 0.71875)"/>
</clipPath>
</defs>
</svg>
