<svg width="373" height="184" viewBox="0 0 373 184" fill="none" xmlns="http://www.w3.org/2000/svg">
<rect width="373" height="184" fill="#1E1E1E"/>
<g id="Explore Projects" clip-path="url(#clip0_0_1)">
<rect width="1440" height="2681" transform="translate(-933 -1422)" fill="#090F20"/>
<g id="Frame 33">
<g clip-path="url(#clip1_0_1)">
<rect id="Rectangle 66" width="373" height="316" rx="8" fill="#090F20"/>
<g id="6_BIRD" clip-path="url(#clip2_0_1)">
<rect width="374" height="205" transform="translate(-1 -21)" fill="#F6F6F6"/>
<path id="FLAG-HANDLE" d="M223.059 101.832L219.156 120.805" stroke="#FFD375" stroke-width="0.00714129" stroke-miterlimit="2.28659" stroke-linecap="round" stroke-linejoin="round"/>
<g id="Bird">
<path id="Vector" fill-rule="evenodd" clip-rule="evenodd" d="M174.759 65.3501C176.485 67.8515 179.32 72.6512 179.009 79.4775C178.82 83.6427 177.062 88.5511 174.32 94.1849C174.32 94.1849 168.799 101.841 172.814 114.508L152.863 109.768C152.863 109.768 147.794 124.03 152.751 131.256L174.505 132.551C174.505 132.551 172.006 140.363 177.315 148.442C177.315 148.442 186.326 163.811 177.852 174.097C177.852 174.097 206.733 161.392 205.846 131.53C205.846 131.53 217.258 124.614 218.199 116.095L222.339 113.898C222.339 113.898 218.97 113.054 218.316 112.888C217.661 112.722 216.032 105.906 203.467 109.565C203.467 109.565 204.201 89.6101 196.377 78.2686C196.377 78.2686 189.223 65.2588 174.759 65.3501Z" fill="white"/>
<g id="Group">
<g id="BIRD">
<path id="Vector_2" fill-rule="evenodd" clip-rule="evenodd" d="M185.124 168.274C185.333 168.228 185.476 168.035 185.457 167.822C185.438 167.61 185.265 167.444 185.052 167.434L180.686 167.246C180.487 167.238 181.302 167.713 181.251 167.906C181.201 168.1 180.298 167.959 180.476 168.05C181.327 168.481 182.502 168.545 183.467 168.488C184.398 168.434 185.124 168.274 185.124 168.274ZM187.463 162.407C187.686 162.383 187.852 162.192 187.844 161.968C187.835 161.744 187.655 161.566 187.431 161.56L181.476 161.399C181.268 161.394 181.087 161.539 181.047 161.743C181.008 161.947 181.122 162.15 181.317 162.222C182.171 162.538 183.725 162.592 185.067 162.555C186.368 162.519 187.463 162.407 187.463 162.407ZM188.29 159.855C188.497 159.8 188.63 159.598 188.601 159.385C188.57 159.172 188.385 159.015 188.17 159.021L181.793 159.168C181.588 159.172 181.416 159.323 181.384 159.526C181.352 159.729 181.468 159.925 181.663 159.993C182.974 160.455 184.641 160.425 185.981 160.271C187.296 160.12 188.29 159.855 188.29 159.855ZM187.309 157.606C187.532 157.573 187.691 157.372 187.671 157.147C187.651 156.923 187.459 156.753 187.233 156.761L181.269 156.96C181.065 156.967 180.895 157.116 180.863 157.317C180.832 157.519 180.946 157.714 181.137 157.783C181.825 158.033 183.393 158 184.79 157.886C186.132 157.775 187.309 157.606 187.309 157.606ZM183.929 149.351C184.154 149.317 184.312 149.112 184.288 148.885C184.263 148.658 184.065 148.492 183.837 148.508L178.437 148.874C178.221 148.889 178.052 149.062 178.041 149.276C178.03 149.49 178.182 149.679 178.393 149.717C179.102 149.838 180.501 149.749 181.722 149.624C182.912 149.502 183.929 149.351 183.929 149.351ZM181.731 141.381C181.956 141.345 182.112 141.138 182.085 140.911C182.059 140.684 181.858 140.52 181.631 140.538L174.34 141.099C174.144 141.114 173.984 141.262 173.953 141.456C173.922 141.65 174.028 141.84 174.21 141.915C174.399 141.993 174.726 142.044 175.147 142.056C175.986 142.077 177.256 141.967 178.462 141.828C180.163 141.631 181.731 141.381 181.731 141.381ZM158.566 128.299C158.796 128.305 158.988 128.127 159.001 127.898C159.013 127.668 158.841 127.471 158.611 127.452L151.275 126.842C151.056 126.824 151.32 127.118 151.284 127.337C151.248 127.555 150.922 127.623 151.136 127.677C152.095 127.919 153.962 128.077 155.59 128.173C157.196 128.266 158.566 128.299 158.566 128.299ZM159.473 126.166C159.703 126.184 159.905 126.014 159.929 125.785C159.952 125.556 159.787 125.35 159.558 125.321L151.103 124.264C150.887 124.238 150.941 124.44 150.893 124.653C150.844 124.866 150.71 125.019 150.917 125.088C151.714 125.355 153.866 125.63 155.821 125.833C157.745 126.033 159.473 126.166 159.473 126.166ZM161.586 122.075C161.816 122.106 162.029 121.946 162.063 121.715C162.097 121.485 161.938 121.27 161.708 121.234L151.154 119.594C150.941 119.561 151.12 119.672 151.063 119.879C151.005 120.087 150.729 120.325 150.928 120.407C151.305 120.562 153.991 120.989 156.583 121.368C159.13 121.741 161.586 122.075 161.586 122.075ZM180.259 107.721C180.488 107.743 180.691 107.579 180.72 107.352C180.749 107.125 180.593 106.916 180.367 106.879L171.268 105.415C171.051 105.38 171.143 105.543 171.088 105.755C171.033 105.967 170.849 106.158 171.054 106.233C172.204 106.651 174.516 107.027 176.541 107.295C178.542 107.56 180.259 107.721 180.259 107.721ZM174.614 94.3874C174.518 94.3546 174.461 94.3266 174.445 94.3154C174.283 94.1986 174.225 93.9856 174.304 93.803C174.383 93.6206 174.578 93.5173 174.774 93.5548L182.797 95.1319C183.027 95.1759 183.178 95.397 183.135 95.6267C183.092 95.8564 182.872 96.0083 182.641 95.9667C182.641 95.9667 180.576 95.5927 178.49 95.2039C176.815 94.8918 175.526 94.607 174.877 94.4601C174.775 94.4373 174.691 94.4131 174.625 94.3908L174.614 94.3888V94.3874ZM184.171 73.7843C184.4 73.7989 184.6 73.6273 184.62 73.3979C184.64 73.1684 184.474 72.9647 184.245 72.9388C184.245 72.9388 182.949 72.7921 181.552 72.6716C180.101 72.5463 178.896 72.356 178.476 72.4646C178.273 72.5169 178.14 72.7082 178.16 72.916C178.179 73.1238 178.347 73.2863 178.556 73.2994L184.171 73.7843ZM184.289 72.1961C184.52 72.2136 184.723 72.0418 184.744 71.8103C184.764 71.5789 184.596 71.3739 184.364 71.3503C184.364 71.3503 183.215 71.233 181.838 71.1137C180.453 70.9937 178.839 70.8719 177.924 70.8633C177.696 70.8612 177.857 70.932 177.847 71.1609C177.837 71.3897 178.011 71.5849 178.239 71.6022L184.289 72.1961Z" fill="#A1BEEF"/>
<g id="Group_2">
<path id="Vector_3" fill-rule="evenodd" clip-rule="evenodd" d="M202.618 109.491C202.618 109.491 202.484 111.612 202.262 112.633C202.212 112.862 202.358 113.088 202.587 113.138C202.816 113.188 203.042 113.042 203.092 112.813C203.322 111.751 203.466 109.545 203.466 109.545C203.481 109.311 203.302 109.109 203.069 109.094C202.835 109.079 202.632 109.257 202.618 109.491Z" fill="#A1BEEF"/>
</g>
<path id="Vector_4" fill-rule="evenodd" clip-rule="evenodd" d="M170.129 114.145C170.129 114.145 172.394 118.725 173.529 118.87L172.777 114.422L170.129 114.145Z" fill="#A1BEEF"/>
<g id="Group_3">
<path id="Vector_5" d="M174.652 132.443L181.263 132.907" stroke="#A1BEEF" stroke-width="0.00292826" stroke-miterlimit="2.28659" stroke-linecap="round" stroke-linejoin="round"/>
</g>
<path id="Vector_6" fill-rule="evenodd" clip-rule="evenodd" d="M178.739 173.027C184.753 170.451 206.111 159.327 205.487 131.525C205.484 131.363 205.572 131.214 205.715 131.139C205.715 131.139 216.462 125.55 217.768 116.06C217.79 115.909 217.888 115.781 218.03 115.724C218.03 115.724 220.369 114.777 221.929 114.145C221.934 114.143 221.937 114.139 221.936 114.135C221.936 114.13 221.933 114.127 221.928 114.126C220.2 113.798 217.544 113.293 217.544 113.293C217.374 113.26 217.239 113.126 217.207 112.954C217.207 112.954 216.876 111.283 215.046 110.081C213.106 108.807 209.563 108.091 203.151 110.125C203.016 110.167 202.869 110.14 202.759 110.053C202.648 109.965 202.588 109.829 202.599 109.688C202.599 109.688 203.38 99.2796 200.327 88.5501C197.295 77.8968 190.471 66.9068 175.239 65.6329C175.005 65.6133 174.831 65.4079 174.85 65.1744C174.87 64.9409 175.076 64.7671 175.31 64.7867C190.975 66.0967 198.026 77.3619 201.143 88.3176C203.797 97.6415 203.593 106.727 203.481 109.134C209.913 107.209 213.514 108.06 215.512 109.372C217.178 110.466 217.778 111.903 217.965 112.508L222.087 113.292C222.461 113.363 222.744 113.672 222.781 114.051C222.819 114.43 222.601 114.789 222.249 114.932L218.574 116.42C217.197 125.302 207.935 130.867 206.34 131.763C206.922 164.547 177.453 174.446 177.453 174.446C177.268 174.509 177.065 174.437 176.96 174.272C176.855 174.108 176.875 173.893 177.01 173.751C180.593 169.982 181.354 165.274 180.992 160.985C180.461 154.708 177.526 149.313 177.32 148.942C172.105 141.831 173.523 134.815 174.073 132.852L152.67 131.636C152.525 131.629 152.394 131.546 152.323 131.419C150.67 128.436 150.324 124.329 150.523 120.472C150.817 114.758 152.286 109.604 152.286 109.604C152.349 109.384 152.574 109.253 152.795 109.307L172.619 114.155C172.847 114.211 172.986 114.441 172.931 114.668C172.876 114.896 172.645 115.036 172.418 114.98L152.996 110.231C152.657 111.525 151.612 115.828 151.371 120.516C151.185 124.124 151.469 127.964 152.956 130.803L174.664 132.034C174.798 132.042 174.921 132.113 174.995 132.225C175.069 132.339 175.085 132.479 175.038 132.605C175.038 132.605 172.145 140.471 178.022 148.462C178.031 148.476 178.041 148.489 178.049 148.504C178.049 148.504 181.272 154.222 181.838 160.914C182.179 164.94 181.558 169.314 178.739 173.027Z" fill="#A1BEEF"/>
<path id="Vector_7" fill-rule="evenodd" clip-rule="evenodd" d="M175.587 65.5684C175.723 65.9038 176.181 67.0332 176.21 67.0872C176.821 68.2526 177.418 69.4214 177.93 70.6349C179.475 74.2974 180.027 78.2882 179.218 82.1902C178.474 85.7814 176.966 89.1447 175.483 92.5183C174.025 95.8331 172.591 99.158 171.969 102.732C170.994 108.332 172.84 113.081 173.99 118.373C174.04 118.602 173.895 118.829 173.665 118.878C173.436 118.928 173.21 118.783 173.16 118.554C171.986 113.152 170.137 108.301 171.133 102.586C171.766 98.9445 173.221 95.5541 174.706 92.1765C176.165 88.8575 177.655 85.5509 178.386 82.018C179.16 78.2853 178.626 74.4685 177.147 70.9651C176.645 69.7735 176.059 68.6263 175.458 67.4821C175.42 67.4092 174.796 66.0743 174.714 65.6286C174.65 65.2759 174.846 65.0923 174.961 65.0373C175.058 64.99 175.199 64.9571 175.377 65.0463C175.571 65.1433 175.659 65.3692 175.587 65.5684ZM175.049 65.8275L175.052 65.8283L175.045 65.8259L175.049 65.8275ZM175.023 65.8179L175.028 65.8199L175.021 65.8165L175.023 65.8179Z" fill="#A1BEEF"/>
<path id="Vector_8" fill-rule="evenodd" clip-rule="evenodd" d="M205.973 131.053C203.382 132.164 197.22 134.354 191.363 133.929C191.248 133.919 191.141 133.985 191.098 134.092C191.057 134.198 191.09 134.319 191.181 134.39C194.533 135.926 205.39 139.429 205.599 138.442L205.973 131.053Z" fill="#A1BEEF"/>
</g>
<g id="Group_4">
<path id="Vector_9" d="M208.314 120.732C208.954 120.732 209.473 120.213 209.473 119.573C209.473 118.933 208.954 118.414 208.314 118.414C207.674 118.414 207.155 118.933 207.155 119.573C207.155 120.213 207.674 120.732 208.314 120.732Z" fill="#FF7866"/>
</g>
<g id="Group_5">
<path id="Vector_10" fill-rule="evenodd" clip-rule="evenodd" d="M213.087 114.585C213.107 115.345 212.859 116.03 212.445 116.458C212.203 116.709 211.905 116.867 211.574 116.876C211.243 116.885 210.936 116.741 210.682 116.504C210.246 116.098 209.962 115.426 209.943 114.666C209.937 114.432 209.742 114.247 209.508 114.253C209.273 114.259 209.088 114.454 209.094 114.688C209.14 116.428 210.297 117.759 211.596 117.725C212.894 117.691 213.982 116.302 213.936 114.563C213.93 114.329 213.735 114.143 213.5 114.149C213.267 114.155 213.081 114.351 213.087 114.585Z" fill="black"/>
</g>
</g>
</g>
<g id="FLAG">
<path id="Vector_11" fill-rule="evenodd" clip-rule="evenodd" d="M220.436 104.552C214.145 101.172 187.835 89.479 132.894 94.804C132.566 94.8358 132.244 94.6926 132.049 94.4268C131.853 94.1611 131.811 93.8119 131.938 93.5073C131.938 93.5073 134.76 86.6748 143.748 82.7623C141.561 81.5732 137.519 79.6907 133.832 79.6767C133.392 79.675 133.013 79.3685 132.919 78.939C132.825 78.5096 133.041 78.0724 133.44 77.8871C133.44 77.8871 174.462 58.7752 227.208 84.4257C227.598 84.6149 227.807 85.0457 227.716 85.4684L223.159 106.502C222.66 105.986 222.101 105.548 221.422 105.119L221.424 105.106C221.303 105.034 221.16 104.952 220.994 104.859C220.817 104.754 220.632 104.65 220.438 104.543L220.436 104.552Z" fill="#FFD375"/>
<g id="Group_6">
<path id="Vector_12" fill-rule="evenodd" clip-rule="evenodd" d="M152.757 78.8965L152.695 77.1892C152.69 77.0745 152.734 76.9631 152.816 76.8818C152.896 76.8004 153.008 76.7564 153.122 76.76C154.171 76.7932 156.902 76.8796 159.32 76.9561C161.75 77.033 163.695 78.9982 163.747 81.4288C163.747 81.4288 163.747 81.4289 163.747 81.4291C163.799 83.8884 161.902 85.9513 159.447 86.105C157.089 86.2526 154.465 86.4169 153.459 86.48C153.347 86.4869 153.238 86.4485 153.155 86.3735C153.072 86.2984 153.024 86.1931 153.019 86.0815L152.961 84.4761L156.107 84.3241C156.269 84.3163 156.392 84.1796 156.384 84.0191C156.377 83.8585 156.24 83.7344 156.08 83.7422L152.94 83.8938L152.908 83.0248C152.929 83.0287 152.951 83.0303 152.975 83.0292L156.571 82.8555C156.731 82.8477 156.856 82.711 156.847 82.5505C156.84 82.3899 156.703 82.2658 156.542 82.2737L152.946 82.4473C152.926 82.4483 152.906 82.4514 152.887 82.4564L152.833 80.9633L156.107 80.805C156.269 80.7973 156.392 80.6606 156.384 80.5C156.377 80.3395 156.24 80.2154 156.08 80.2232L152.811 80.381L152.778 79.4788L155.723 79.3365C155.883 79.3287 156.007 79.1921 156 79.0315C155.993 78.871 155.856 78.7469 155.695 78.7546L152.757 78.8965Z" fill="#EF7B58"/>
<path id="Vector_13" fill-rule="evenodd" clip-rule="evenodd" d="M181.122 80.7849C178.871 80.1472 174.946 78.4751 173.626 74.3934C173.626 74.3934 174.924 74.0936 176.396 74.5843C178.238 75.1994 182.526 77.1015 182.752 80.9342C187.022 81.352 191.699 82.0196 196.422 83.0704C194.23 82.1986 190.574 80.1565 189.665 76.0252C189.665 76.0252 190.987 75.8514 192.403 76.4811C194.186 77.2736 198.301 79.5961 198.118 83.4645C202.065 84.4196 206.011 85.6531 209.746 87.2418C207.733 86.004 204.498 83.372 204.306 79.1592C204.306 79.1592 205.638 79.2131 206.926 80.0749C208.552 81.1624 212.225 84.1638 211.362 87.9579L211.385 87.9685C212.375 88.4264 213.35 88.9117 214.31 89.4293C215.054 89.8306 215.788 90.2508 216.509 90.6914C216.709 90.8131 216.906 90.9363 217.104 91.0612C217.143 91.0861 217.182 91.111 217.222 91.1361C217.263 91.1623 217.304 91.1876 217.343 91.2178C217.382 91.2485 217.417 91.2831 217.449 91.3209C217.507 91.3898 217.553 91.4693 217.583 91.5544C217.61 91.6359 217.625 91.7223 217.624 91.8086C217.623 91.884 217.61 91.9593 217.587 92.031C217.567 92.0935 217.538 92.1531 217.502 92.2081C217.46 92.2704 217.411 92.3266 217.352 92.3739C217.225 92.4786 217.063 92.5383 216.899 92.5426C216.802 92.545 216.705 92.5284 216.614 92.4936C216.524 92.4589 216.446 92.4036 216.365 92.3519C216.288 92.3028 216.21 92.2539 216.132 92.2052C215.86 92.0345 215.585 91.8668 215.309 91.7022C214.434 91.181 213.541 90.6895 212.635 90.2252C209.956 88.8524 207.159 87.7185 204.306 86.7612L204.275 86.7509C204.278 86.7563 204.28 86.7619 204.282 86.7675C204.323 86.8785 204.312 87.0022 204.25 87.1035C201.188 92.0748 194.281 91.6658 194.281 91.6658C195.08 87.7734 199.773 86.6479 201.731 86.3734C202.206 86.3068 202.652 86.3117 203.04 86.3498C198.981 85.0718 194.814 84.1404 190.785 83.4653C190.78 83.5079 190.768 83.5497 190.748 83.589C188.129 88.807 181.212 88.998 181.212 88.998C181.671 85.0509 186.248 83.523 188.176 83.0799C188.194 83.0757 188.213 83.0716 188.231 83.0676C184.67 82.5546 181.261 82.2328 178.187 82.0366C178.2 82.1153 178.188 82.1969 178.152 82.2701C175.533 87.488 168.616 87.679 168.616 87.679C169.043 84.018 173.01 82.4383 175.122 81.8749C168.518 81.6 164.074 81.8851 164.074 81.8851C164.051 81.8865 164.03 81.8869 164.011 81.8861C164.263 84.3422 161.291 85.788 161.291 85.788C160.579 84.8076 160.972 83.7078 161.666 82.8224C162.275 82.0459 163.114 81.4343 163.641 81.2129C162.928 80.9457 160.078 79.6998 160.593 77.0493C161.094 77.099 162.176 77.6167 162.992 78.3905C163.584 78.9522 164.037 79.6486 164.026 80.3992C164.664 80.3622 171.743 79.983 181.122 80.7849Z" fill="white"/>
</g>
</g>
<g id="HAND-2">
<path id="Vector_14" fill-rule="evenodd" clip-rule="evenodd" d="M205.803 184.483C205.803 184.483 205.74 165.548 210.973 157.907C210.973 157.907 216.82 149.593 218.442 146.967C218.442 146.967 219.441 144.55 220.51 143.311C220.765 143.02 221.128 142.846 221.514 142.83C221.902 142.814 222.278 142.958 222.556 143.228C223.675 144.312 225.241 147.132 223.93 154.128L236.117 148.399C236.117 148.399 240.097 135.634 243.51 136.016C243.51 136.016 244.894 135.925 244.563 142.125C244.563 142.125 246.445 139.241 248.133 140.365C248.133 140.365 250.003 142.068 248.327 150.025C248.327 150.025 251.684 147.762 252.128 150.407C252.239 151.068 252.06 151.744 251.637 152.265C249.989 154.245 244.517 160.611 237.886 166.026L237.327 184.315L205.803 184.483Z" fill="#EF7B58"/>
<path id="Vector_15" fill-rule="evenodd" clip-rule="evenodd" d="M222.338 160.74C222.724 159.175 223.016 157.564 222.98 157.336C222.951 157.16 223.069 156.994 223.245 156.964C223.421 156.934 223.587 157.053 223.617 157.229C223.658 157.457 223.448 159 223.11 160.582L223.108 160.591C223.499 160.536 223.893 160.512 224.288 160.517C225.485 160.526 226.69 160.79 227.844 161.199C228.12 161.3 228.261 161.606 228.16 161.881C228.06 162.156 227.755 162.297 227.48 162.197C226.441 161.803 225.354 161.537 224.269 161.505C223.802 161.491 223.336 161.52 222.874 161.6C222.649 162.503 222.394 163.323 222.146 163.805C221.854 164.374 221.281 165.037 220.67 165.225C220.186 165.374 219.664 165.284 219.189 164.699C218.715 164.118 218.75 163.506 219.037 162.943C219.384 162.265 220.164 161.666 220.719 161.367C221.246 161.082 221.787 160.878 222.338 160.74ZM222.056 161.802C221.749 161.9 221.445 162.024 221.146 162.178C220.713 162.4 220.089 162.832 219.811 163.349C219.671 163.61 219.633 163.896 219.849 164.173C219.967 164.324 220.081 164.418 220.207 164.447C220.348 164.481 220.488 164.437 220.621 164.361C220.971 164.164 221.274 163.773 221.454 163.44C221.656 163.068 221.861 162.475 222.056 161.802Z" fill="#D30000"/>
<g id="Group_7">
<path id="Vector_16" fill-rule="evenodd" clip-rule="evenodd" d="M234.606 150.096L234.905 149L236.127 148.406L235.581 150.558C235.549 150.676 235.476 150.779 235.377 150.85L228.333 155.888C228.094 156.058 227.763 156.003 227.592 155.765C227.422 155.526 227.477 155.194 227.715 155.024L234.606 150.096Z" fill="#D30000"/>
</g>
<path id="Vector_17" fill-rule="evenodd" clip-rule="evenodd" d="M238.928 152.391C240.776 145.333 243.091 142.034 244.462 140.601C244.506 140.555 244.607 140.459 244.607 140.459L244.554 142.119C244.554 142.119 244.474 142.212 244.434 142.265C243.171 143.924 241.423 147.043 239.949 152.682C239.951 152.785 239.924 152.889 239.869 152.977C239.801 153.152 239.647 153.275 239.47 153.308L231.195 159.079C230.955 159.246 230.624 159.188 230.456 158.947C230.289 158.707 230.347 158.376 230.588 158.208L238.928 152.391Z" fill="#D30000"/>
<path id="Vector_18" fill-rule="evenodd" clip-rule="evenodd" d="M248.582 148.635C248.582 148.635 233.039 161.153 233.033 161.2C232.995 161.491 232.793 161.729 232.987 161.949C233.181 162.169 233.517 162.189 233.736 161.995C233.751 161.932 248.342 150.032 248.342 150.032" fill="#D30000"/>
<path id="Vector_19" fill-rule="evenodd" clip-rule="evenodd" d="M237.895 166.056C237.895 166.056 233.68 169.998 231.258 172.262C230.98 172.522 230.885 172.924 231.02 173.281C231.154 173.638 231.489 173.879 231.869 173.891C234.25 173.973 237.647 174.089 237.647 174.089L237.895 166.056Z" fill="#D30000"/>
</g>
<g id="HAND-1">
<path id="Vector_20" fill-rule="evenodd" clip-rule="evenodd" d="M167.774 184.483C167.774 184.483 167.838 165.548 162.605 157.907C162.605 157.907 156.757 149.593 155.135 146.967C155.135 146.967 154.136 144.55 153.067 143.311C152.812 143.02 152.449 142.846 152.063 142.83C151.676 142.814 151.3 142.958 151.022 143.228C149.903 144.312 148.336 147.132 149.647 154.128L137.46 148.399C137.46 148.399 133.481 135.634 130.068 136.016C130.068 136.016 128.684 135.925 129.015 142.125C129.015 142.125 127.133 139.241 125.444 140.365C125.444 140.365 123.575 142.068 125.251 150.025C125.251 150.025 121.893 147.762 121.45 150.407C121.338 151.068 121.518 151.744 121.94 152.265C123.588 154.245 129.06 160.611 135.692 166.026L136.25 184.315L167.774 184.483Z" fill="#EF7B58"/>
<path id="Vector_21" fill-rule="evenodd" clip-rule="evenodd" d="M151.239 160.74C150.853 159.175 150.561 157.564 150.597 157.336C150.627 157.16 150.508 156.994 150.333 156.964C150.157 156.934 149.99 157.053 149.96 157.229C149.92 157.457 150.129 159 150.468 160.582L150.47 160.591C150.078 160.536 149.684 160.512 149.289 160.517C148.092 160.526 146.887 160.79 145.733 161.199C145.457 161.3 145.316 161.606 145.417 161.881C145.518 162.156 145.822 162.297 146.097 162.197C147.137 161.803 148.224 161.537 149.308 161.505C149.775 161.491 150.241 161.52 150.703 161.6C150.928 162.503 151.183 163.323 151.431 163.805C151.723 164.374 152.297 165.037 152.907 165.225C153.391 165.374 153.913 165.284 154.389 164.699C154.862 164.118 154.827 163.506 154.541 162.943C154.193 162.265 153.413 161.666 152.858 161.367C152.332 161.082 151.79 160.878 151.239 160.74ZM151.522 161.802C151.828 161.9 152.132 162.024 152.431 162.178C152.864 162.4 153.489 162.832 153.767 163.349C153.907 163.61 153.944 163.896 153.728 164.173C153.611 164.324 153.496 164.418 153.371 164.447C153.23 164.481 153.089 164.437 152.957 164.361C152.606 164.164 152.303 163.773 152.124 163.44C151.922 163.068 151.716 162.475 151.522 161.802Z" fill="#D30000"/>
<g id="Group_8">
<path id="Vector_22" fill-rule="evenodd" clip-rule="evenodd" d="M138.971 150.096L138.672 149L137.45 148.406L137.997 150.558C138.029 150.676 138.101 150.779 138.2 150.85L145.245 155.888C145.484 156.058 145.815 156.003 145.985 155.765C146.156 155.526 146.1 155.194 145.863 155.024L138.971 150.096Z" fill="#D30000"/>
</g>
<path id="Vector_23" fill-rule="evenodd" clip-rule="evenodd" d="M134.649 152.391C132.801 145.333 130.486 142.034 129.116 140.601C129.071 140.555 128.97 140.459 128.97 140.459L129.023 142.119C129.023 142.119 129.103 142.212 129.143 142.265C130.406 143.924 132.155 147.043 133.628 152.682C133.626 152.785 133.654 152.889 133.709 152.977C133.777 153.152 133.931 153.275 134.108 153.308L142.382 159.079C142.622 159.246 142.953 159.188 143.121 158.947C143.289 158.707 143.23 158.376 142.989 158.208L134.649 152.391Z" fill="#D30000"/>
<path id="Vector_24" fill-rule="evenodd" clip-rule="evenodd" d="M124.995 148.635C124.995 148.635 140.538 161.153 140.545 161.2C140.582 161.491 140.785 161.729 140.59 161.949C140.396 162.169 140.061 162.189 139.841 161.995C139.826 161.932 125.236 150.032 125.236 150.032" fill="#D30000"/>
<path id="Vector_25" fill-rule="evenodd" clip-rule="evenodd" d="M135.682 166.056C135.682 166.056 139.897 169.998 142.32 172.262C142.598 172.522 142.692 172.924 142.557 173.281C142.424 173.638 142.088 173.879 141.708 173.891C139.327 173.973 135.93 174.089 135.93 174.089L135.682 166.056Z" fill="#D30000"/>
</g>
</g>
<g id="Frame 49" filter="url(#filter0_b_0_1)">
<rect x="20" y="148" width="78" height="26" rx="4" fill="black" fill-opacity="0.35"/>
<path id="&#226;&#128;&#162;On going" d="M28.9297 161.023V160.764C28.9297 160.308 29.0755 159.937 29.3672 159.649C29.6589 159.358 30.0508 159.212 30.543 159.212C31.0534 159.212 31.4521 159.358 31.7393 159.649C32.0309 159.937 32.1768 160.308 32.1768 160.764V161.023C32.1768 161.475 32.0332 161.844 31.7461 162.131C31.459 162.418 31.0625 162.562 30.5566 162.562C30.0599 162.562 29.6634 162.418 29.3672 162.131C29.0755 161.844 28.9297 161.475 28.9297 161.023ZM42.0957 160.791V161.263C42.0957 162.019 41.9932 162.698 41.7881 163.3C41.583 163.901 41.2936 164.414 40.9199 164.838C40.5462 165.257 40.0996 165.578 39.5801 165.802C39.0651 166.025 38.4932 166.137 37.8643 166.137C37.2399 166.137 36.668 166.025 36.1484 165.802C35.6335 165.578 35.1868 165.257 34.8086 164.838C34.4303 164.414 34.1364 163.901 33.9268 163.3C33.7217 162.698 33.6191 162.019 33.6191 161.263V160.791C33.6191 160.03 33.7217 159.351 33.9268 158.754C34.1318 158.152 34.4212 157.64 34.7949 157.216C35.1732 156.792 35.6198 156.468 36.1348 156.245C36.6543 156.022 37.2262 155.91 37.8506 155.91C38.4795 155.91 39.0514 156.022 39.5664 156.245C40.0859 156.468 40.5326 156.792 40.9062 157.216C41.2845 157.64 41.5762 158.152 41.7812 158.754C41.9909 159.351 42.0957 160.03 42.0957 160.791ZM40.0244 161.263V160.777C40.0244 160.249 39.9766 159.784 39.8809 159.383C39.7852 158.982 39.6439 158.645 39.457 158.371C39.2702 158.098 39.0423 157.893 38.7734 157.756C38.5046 157.615 38.1969 157.544 37.8506 157.544C37.5042 157.544 37.1966 157.615 36.9277 157.756C36.6634 157.893 36.4378 158.098 36.251 158.371C36.0687 158.645 35.9297 158.982 35.834 159.383C35.7383 159.784 35.6904 160.249 35.6904 160.777V161.263C35.6904 161.787 35.7383 162.252 35.834 162.657C35.9297 163.058 36.071 163.398 36.2578 163.676C36.4447 163.949 36.6725 164.157 36.9414 164.298C37.2103 164.439 37.5179 164.51 37.8643 164.51C38.2106 164.51 38.5182 164.439 38.7871 164.298C39.056 164.157 39.2816 163.949 39.4639 163.676C39.6462 163.398 39.7852 163.058 39.8809 162.657C39.9766 162.252 40.0244 161.787 40.0244 161.263ZM45.377 160.183V166H43.4082V158.604H45.2539L45.377 160.183ZM45.0898 162.042H44.5566C44.5566 161.495 44.6273 161.003 44.7686 160.565C44.9098 160.123 45.1081 159.747 45.3633 159.438C45.6185 159.123 45.9215 158.884 46.2725 158.72C46.6279 158.551 47.0244 158.467 47.4619 158.467C47.8083 158.467 48.125 158.517 48.4121 158.617C48.6992 158.717 48.9453 158.877 49.1504 159.096C49.36 159.314 49.5195 159.604 49.6289 159.964C49.7428 160.324 49.7998 160.764 49.7998 161.283V166H47.8174V161.276C47.8174 160.948 47.7718 160.693 47.6807 160.511C47.5895 160.328 47.4551 160.201 47.2773 160.128C47.1042 160.05 46.89 160.012 46.6348 160.012C46.3704 160.012 46.1403 160.064 45.9443 160.169C45.7529 160.274 45.5934 160.42 45.4658 160.606C45.3428 160.789 45.2493 161.003 45.1855 161.249C45.1217 161.495 45.0898 161.759 45.0898 162.042ZM59.4658 158.604H61.25V165.754C61.25 166.428 61.0996 167 60.7988 167.47C60.5026 167.944 60.0879 168.301 59.5547 168.543C59.0215 168.789 58.4017 168.912 57.6953 168.912C57.3854 168.912 57.0573 168.871 56.7109 168.789C56.3691 168.707 56.041 168.579 55.7266 168.406C55.4167 168.233 55.1569 168.014 54.9473 167.75L55.8154 166.588C56.0433 166.852 56.3076 167.057 56.6084 167.203C56.9092 167.354 57.2419 167.429 57.6064 167.429C57.9619 167.429 58.2627 167.363 58.5088 167.23C58.7549 167.103 58.944 166.914 59.0762 166.663C59.2083 166.417 59.2744 166.118 59.2744 165.768V160.312L59.4658 158.604ZM54.4893 162.391V162.247C54.4893 161.682 54.5576 161.169 54.6943 160.709C54.8356 160.244 55.0339 159.845 55.2891 159.513C55.5488 159.18 55.8633 158.923 56.2324 158.74C56.6016 158.558 57.0186 158.467 57.4834 158.467C57.9756 158.467 58.388 158.558 58.7207 158.74C59.0534 158.923 59.3268 159.182 59.541 159.52C59.7552 159.852 59.9215 160.246 60.04 160.702C60.1631 161.153 60.2588 161.648 60.3271 162.186V162.5C60.2588 163.015 60.1562 163.493 60.0195 163.936C59.8828 164.378 59.7028 164.765 59.4795 165.098C59.2562 165.426 58.9782 165.681 58.6455 165.863C58.3174 166.046 57.9255 166.137 57.4697 166.137C57.014 166.137 56.6016 166.043 56.2324 165.856C55.8678 165.67 55.5557 165.408 55.2959 165.07C55.0361 164.733 54.8356 164.337 54.6943 163.881C54.5576 163.425 54.4893 162.928 54.4893 162.391ZM56.458 162.247V162.391C56.458 162.696 56.4876 162.981 56.5469 163.245C56.6061 163.509 56.6973 163.744 56.8203 163.949C56.9479 164.15 57.1051 164.307 57.292 164.421C57.4834 164.53 57.709 164.585 57.9688 164.585C58.3288 164.585 58.6227 164.51 58.8506 164.359C59.0785 164.204 59.2493 163.993 59.3633 163.724C59.4772 163.455 59.5433 163.145 59.5615 162.794V161.898C59.5524 161.611 59.5137 161.354 59.4453 161.126C59.377 160.894 59.2812 160.695 59.1582 160.531C59.0352 160.367 58.8757 160.24 58.6797 160.148C58.4837 160.057 58.2513 160.012 57.9824 160.012C57.7227 160.012 57.4971 160.071 57.3057 160.189C57.1188 160.303 56.9616 160.461 56.834 160.661C56.7109 160.862 56.6175 161.099 56.5537 161.372C56.4899 161.641 56.458 161.933 56.458 162.247ZM62.4668 162.377V162.233C62.4668 161.691 62.5443 161.192 62.6992 160.736C62.8542 160.276 63.0798 159.877 63.376 159.54C63.6722 159.203 64.0368 158.941 64.4697 158.754C64.9027 158.562 65.3994 158.467 65.96 158.467C66.5205 158.467 67.0195 158.562 67.457 158.754C67.8945 158.941 68.2614 159.203 68.5576 159.54C68.8584 159.877 69.0863 160.276 69.2412 160.736C69.3962 161.192 69.4736 161.691 69.4736 162.233V162.377C69.4736 162.915 69.3962 163.414 69.2412 163.874C69.0863 164.33 68.8584 164.729 68.5576 165.07C68.2614 165.408 67.8968 165.67 67.4639 165.856C67.0309 166.043 66.5342 166.137 65.9736 166.137C65.4131 166.137 64.9141 166.043 64.4766 165.856C64.0436 165.67 63.6768 165.408 63.376 165.07C63.0798 164.729 62.8542 164.33 62.6992 163.874C62.5443 163.414 62.4668 162.915 62.4668 162.377ZM64.4355 162.233V162.377C64.4355 162.687 64.4629 162.976 64.5176 163.245C64.5723 163.514 64.6589 163.751 64.7773 163.956C64.9004 164.157 65.0599 164.314 65.2559 164.428C65.4518 164.542 65.6911 164.599 65.9736 164.599C66.2471 164.599 66.4818 164.542 66.6777 164.428C66.8737 164.314 67.0309 164.157 67.1494 163.956C67.2679 163.751 67.3545 163.514 67.4092 163.245C67.4684 162.976 67.498 162.687 67.498 162.377V162.233C67.498 161.933 67.4684 161.65 67.4092 161.386C67.3545 161.117 67.2656 160.88 67.1426 160.675C67.0241 160.465 66.8669 160.301 66.6709 160.183C66.4749 160.064 66.238 160.005 65.96 160.005C65.682 160.005 65.445 160.064 65.249 160.183C65.0576 160.301 64.9004 160.465 64.7773 160.675C64.6589 160.88 64.5723 161.117 64.5176 161.386C64.4629 161.65 64.4355 161.933 64.4355 162.233ZM72.7617 158.604V166H70.7861V158.604H72.7617ZM70.6631 156.676C70.6631 156.389 70.7633 156.152 70.9639 155.965C71.1644 155.778 71.4333 155.685 71.7705 155.685C72.1032 155.685 72.3698 155.778 72.5703 155.965C72.7754 156.152 72.8779 156.389 72.8779 156.676C72.8779 156.963 72.7754 157.2 72.5703 157.387C72.3698 157.574 72.1032 157.667 71.7705 157.667C71.4333 157.667 71.1644 157.574 70.9639 157.387C70.7633 157.2 70.6631 156.963 70.6631 156.676ZM76.3164 160.183V166H74.3477V158.604H76.1934L76.3164 160.183ZM76.0293 162.042H75.4961C75.4961 161.495 75.5667 161.003 75.708 160.565C75.8493 160.123 76.0475 159.747 76.3027 159.438C76.5579 159.123 76.861 158.884 77.2119 158.72C77.5674 158.551 77.9639 158.467 78.4014 158.467C78.7477 158.467 79.0645 158.517 79.3516 158.617C79.6387 158.717 79.8848 158.877 80.0898 159.096C80.2995 159.314 80.459 159.604 80.5684 159.964C80.6823 160.324 80.7393 160.764 80.7393 161.283V166H78.7568V161.276C78.7568 160.948 78.7113 160.693 78.6201 160.511C78.529 160.328 78.3945 160.201 78.2168 160.128C78.0436 160.05 77.8294 160.012 77.5742 160.012C77.3099 160.012 77.0798 160.064 76.8838 160.169C76.6924 160.274 76.5329 160.42 76.4053 160.606C76.2822 160.789 76.1888 161.003 76.125 161.249C76.0612 161.495 76.0293 161.759 76.0293 162.042ZM86.9189 158.604H88.7031V165.754C88.7031 166.428 88.5527 167 88.252 167.47C87.9557 167.944 87.541 168.301 87.0078 168.543C86.4746 168.789 85.8548 168.912 85.1484 168.912C84.8385 168.912 84.5104 168.871 84.1641 168.789C83.8223 168.707 83.4941 168.579 83.1797 168.406C82.8698 168.233 82.61 168.014 82.4004 167.75L83.2686 166.588C83.4964 166.852 83.7607 167.057 84.0615 167.203C84.3623 167.354 84.695 167.429 85.0596 167.429C85.415 167.429 85.7158 167.363 85.9619 167.23C86.208 167.103 86.3971 166.914 86.5293 166.663C86.6615 166.417 86.7275 166.118 86.7275 165.768V160.312L86.9189 158.604ZM81.9424 162.391V162.247C81.9424 161.682 82.0107 161.169 82.1475 160.709C82.2887 160.244 82.487 159.845 82.7422 159.513C83.002 159.18 83.3164 158.923 83.6855 158.74C84.0547 158.558 84.4717 158.467 84.9365 158.467C85.4287 158.467 85.8411 158.558 86.1738 158.74C86.5065 158.923 86.7799 159.182 86.9941 159.52C87.2083 159.852 87.3747 160.246 87.4932 160.702C87.6162 161.153 87.7119 161.648 87.7803 162.186V162.5C87.7119 163.015 87.6094 163.493 87.4727 163.936C87.3359 164.378 87.1559 164.765 86.9326 165.098C86.7093 165.426 86.4313 165.681 86.0986 165.863C85.7705 166.046 85.3786 166.137 84.9229 166.137C84.4671 166.137 84.0547 166.043 83.6855 165.856C83.321 165.67 83.0088 165.408 82.749 165.07C82.4893 164.733 82.2887 164.337 82.1475 163.881C82.0107 163.425 81.9424 162.928 81.9424 162.391ZM83.9111 162.247V162.391C83.9111 162.696 83.9408 162.981 84 163.245C84.0592 163.509 84.1504 163.744 84.2734 163.949C84.401 164.15 84.5583 164.307 84.7451 164.421C84.9365 164.53 85.1621 164.585 85.4219 164.585C85.7819 164.585 86.0758 164.51 86.3037 164.359C86.5316 164.204 86.7025 163.993 86.8164 163.724C86.9303 163.455 86.9964 163.145 87.0146 162.794V161.898C87.0055 161.611 86.9668 161.354 86.8984 161.126C86.8301 160.894 86.7344 160.695 86.6113 160.531C86.4883 160.367 86.3288 160.24 86.1328 160.148C85.9368 160.057 85.7044 160.012 85.4355 160.012C85.1758 160.012 84.9502 160.071 84.7588 160.189C84.5719 160.303 84.4147 160.461 84.2871 160.661C84.1641 160.862 84.0706 161.099 84.0068 161.372C83.943 161.641 83.9111 161.933 83.9111 162.247Z" fill="#FF6D03"/>
</g>
</g>
<rect x="1" y="1" width="371" height="314" rx="7" stroke="#4D4E50" stroke-width="2"/>
</g>
</g>
<defs>
<filter id="filter0_b_0_1" x="15" y="143" width="88" height="36" filterUnits="userSpaceOnUse" color-interpolation-filters="sRGB">
<feFlood flood-opacity="0" result="BackgroundImageFix"/>
<feGaussianBlur in="BackgroundImageFix" stdDeviation="2.5"/>
<feComposite in2="SourceAlpha" operator="in" result="effect1_backgroundBlur_0_1"/>
<feBlend mode="normal" in="SourceGraphic" in2="effect1_backgroundBlur_0_1" result="shape"/>
</filter>
<clipPath id="clip0_0_1">
<rect width="1440" height="2681" fill="white" transform="translate(-933 -1422)"/>
</clipPath>
<clipPath id="clip1_0_1">
<rect width="373" height="316" rx="8" fill="white"/>
</clipPath>
<clipPath id="clip2_0_1">
<rect width="374" height="205" fill="white" transform="translate(-1 -21)"/>
</clipPath>
</defs>
</svg>
