<svg width="24" height="20" viewBox="0 0 24 20" fill="none" xmlns="http://www.w3.org/2000/svg">
<rect width="24" height="20" fill="#1E1E1E"/>
<g clip-path="url(#clip0_0_1)">
<rect width="1440" height="2681" transform="translate(-660 -2167)" fill="#090F20"/>
<path d="M21.057 5.18066C21.0663 5.39186 21.0663 5.59346 21.0663 5.80466C21.0755 12.2079 16.3711 19.5999 7.76783 19.5999C5.23038 19.5999 2.73923 18.8415 0.599998 17.4207C0.970429 17.4687 1.34086 17.4879 1.71129 17.4879C3.81348 17.4879 5.86011 16.7583 7.51779 15.4047C5.51746 15.3663 3.75792 14.0127 3.14671 12.0351C3.85053 12.1791 4.57287 12.1503 5.25816 11.9487C3.08188 11.5071 1.51681 9.51987 1.50755 7.20626C1.50755 7.18706 1.50755 7.16786 1.50755 7.14866C2.15581 7.52306 2.88741 7.73426 3.62827 7.75346C1.58164 6.33266 0.942647 3.50065 2.18359 1.28304C4.56361 4.31665 8.06417 6.15026 11.824 6.35186C11.4444 4.67185 11.963 2.90545 13.1761 1.71505C15.0561 -0.118561 18.0195 -0.0225605 19.7976 1.92625C20.844 1.71505 21.8534 1.31184 22.7703 0.745442C22.4184 1.86865 21.6868 2.81905 20.7144 3.42385C21.6405 3.30865 22.548 3.04945 23.4 2.66545C22.7703 3.64465 21.9738 4.48945 21.057 5.18066Z" fill="white"/>
</g>
<defs>
<clipPath id="clip0_0_1">
<rect width="1440" height="2681" fill="white" transform="translate(-660 -2167)"/>
</clipPath>
</defs>
</svg>
