<svg width="24" height="18" viewBox="0 0 24 18" fill="none" xmlns="http://www.w3.org/2000/svg">
<rect width="24" height="18" fill="#1E1E1E"/>
<g id="Explore Projects" clip-path="url(#clip0_0_1)">
<rect width="1440" height="2681" transform="translate(-804 -2168)" fill="#090F20"/>
<g id="Group 21337">
<g id="Group 21336">
<g id="Group 21268">
<g id="YouTube">
<g id="Group">
<path id="Vector" d="M23.5057 3.22941C23.2289 2.20141 22.4184 1.39087 21.3904 1.1141C19.5123 0.600098 11.9999 0.600098 11.9999 0.600098C11.9999 0.600098 4.48762 0.600098 2.60954 1.09433C1.60131 1.3711 0.771002 2.20141 0.494232 3.22941C0 5.10749 0 9.00204 0 9.00204C0 9.00204 0 12.9164 0.494232 14.7747C0.771002 15.8027 1.58154 16.6132 2.60954 16.89C4.50739 17.404 11.9999 17.404 11.9999 17.404C11.9999 17.404 19.5123 17.404 21.3904 16.9097C22.4184 16.633 23.2289 15.8224 23.5057 14.7944C23.9999 12.9164 23.9999 9.02181 23.9999 9.02181C23.9999 9.02181 24.0197 5.10749 23.5057 3.22941Z" fill="white"/>
<path id="Vector_2" d="M9.60788 12.6001L15.855 9.00206L9.60788 5.40405V12.6001Z" fill="#090F20"/>
</g>
</g>
</g>
</g>
</g>
</g>
<defs>
<clipPath id="clip0_0_1">
<rect width="1440" height="2681" fill="white" transform="translate(-804 -2168)"/>
</clipPath>
</defs>
</svg>
